<svg xmlns="http://www.w3.org/2000/svg" width="232" height="232" viewBox="-16 0 232 232">
<!-- SVG created with Arrow, by QuiverAI (https://quiver.ai) -->
  <rect x="-16" y="0" width="232" height="232" fill="#000"/>
  <path d="m100 5.12-94.81 54.46-0.05 0.03-0.08 0.05-0.07 0.04v57.17l0.19 0.11 0.15 0.09 46.87 26.71v11.15l47.4 26.75 55.38-31.5v-13l-42.97-25.16-22.04-0.01-36.19-20.92v-4.38l46.22-27.5 38.8 22.52v12.48l47.24 26.61v45.47l-86.11 48.4-85.01-48.4v-34.46l-9.82-5.09v44.07l94.83 55.42 96.58-55.85v-54.51l-49.55-26.81v-12l-46.96-28.47-55.3 32.97v14.23l43.37 25.04h21.05l37.48 22.03v2.18l-47 26.05-38.02-21.22v-11.06l-46.66-26.3v-47.86l85.06-49.87 86.22 49.87v36.53l10.84 5.78v-47.26l-97.04-54.58z" fill="#85F90D"/>
  <path d="m168.3 68.71c-0.52 0-1.03 0.05-1.53 0.14l-66.77-41.93-74.4 43.19v36.56l63.56 37.59c-0.06 0.51-0.11 1.02-0.11 1.55 0 6.77 4.54 10.68 10.19 10.68 6.11 0 10.62-6.71 10.34-10.68-0.44-6.05-4.52-10.68-10.34-10.68-2.24 0-4.1 0.61-5.66 1.68l-59.08-35.04v-25.81l65.5-38.56 58.89 35.33c-1.42 1.99-1.82 3.75-1.82 6.32 0 6.46 4.99 9.86 10.64 9.86 5.98 0 10.2-5.04 10.2-9.36 0-5.84-4.11-10.84-9.61-10.84zm-68.3 72.24c3.1 0 3.9 2.61 3.9 5.08 0 2.7-2.06 4.15-4.38 4.15-2.71 0-4.21-1.71-4.21-4.42 0-2.46 1.4-4.81 4.69-4.81zm68.3-58.06c-2.97 0-4.04-1.95-4.04-3.97 0-2.39 1.44-4.04 4.04-4.04s3.5 2.13 3.5 4.04-1.43 3.97-3.5 3.97z" fill="#85F90D"/>
  <path d="m110 86.99c0-6.32-4.76-9.78-10.3-9.78-6.8 0-10.22 5.52-10.22 10 0 6.7 4.77 10.11 9.89 10.11 2.12 0 4.43-0.68 5.48-1.3l61.04 35.8v23.7l-66.32 37.96-58.07-32.79c1.37-1.85 1.38-3.73 1.38-6.05 0-6.15-4.39-11.42-10.42-11.42-7.07 0-9.94 5.49-9.94 10.79 0 6.3 4.5 9.95 9.94 9.95 0.32 0 0.64-0.03 0.96-0.06 0.98 1.81 2.42 2.88 3.68 3.62l62.31 36.13 75.46-42.83v-33.85l-65.1-37.75c0.11-0.73 0.23-1.51 0.23-2.23zm-77.41 71.22c-3.56 0-4.15-2.27-4.15-3.89 0-2.51 1.51-4.27 4.02-4.27 2.58 0 4.25 1.66 4.25 4.24 0 2.61-1.98 3.92-4.12 3.92zm67.16-66.79c-2.81 0-4.22-2.02-4.22-4.06 0-2.39 1.55-4.19 4.15-4.19 2.46 0 4.09 1.89 4.09 4.05 0 2.49-1.43 4.2-4.02 4.2z" fill="#85F90D"/>
</svg>